<?xml version="1.0" encoding="utf-8"?>
<!-- Generator: Adobe Illustrator 17.0.0, SVG Export Plug-In . SVG Version: 6.00 Build 0)  -->
<!DOCTYPE svg PUBLIC "-//W3C//DTD SVG 1.1//EN" "http://www.w3.org/Graphics/SVG/1.1/DTD/svg11.dtd">
<svg version="1.1" id="Layer_1" xmlns="http://www.w3.org/2000/svg" xmlns:xlink="http://www.w3.org/1999/xlink" x="0px" y="0px"
	 width="528.912px" height="119.063px" viewBox="-0.397 3.948 528.912 119.063"
	 enable-background="new -0.397 3.948 528.912 119.063" xml:space="preserve">
<path fill="#2AB377" d="M104.816,117.454c0,0-30.381,8.121-65.159,4.728c-15.474-1.509-26.112-4.727-26.112-4.727L-0.397,90.639
	c0,0,6.149,6.748,22.346,7.95c65.741,4.878,85.783-25.767,85.783-25.767L104.816,117.454z"/>
<path fill="#00787C" d="M59.113,3.948L33.56,40.854c0,0-0.16,0,33.241,25.13s38.016,51.47,38.016,51.47l13.943-26.816
	c0,0-2.894-18.248-31.721-46.103C58.212,16.679,59.113,3.948,59.113,3.948z"/>
<path fill="#0D9D84" d="M13.545,117.455L-0.397,90.639c0,0,16.619-17.498,28.917-42.029C41.11,23.494,59.249,3.948,59.249,3.948
	S65.217,46.331,48.51,71.87C34.363,93.493,13.545,117.455,13.545,117.455z"/>
<g>
	<path fill="#231F20" d="M196.776,86.358h-11.378c-1.274,0-2.301-0.296-3.083-0.891c-0.782-0.593-1.375-1.352-1.78-2.28
		l-3.734-11.03h-24.06l-3.735,11.03c-0.319,0.811-0.891,1.542-1.715,2.194c-0.825,0.652-1.846,0.977-3.062,0.977h-11.466
		l24.494-63.274h15.027L196.776,86.358z M173.455,62.169l-5.862-17.328c-0.434-1.101-0.897-2.396-1.389-3.886
		c-0.494-1.492-0.986-3.106-1.476-4.843c-0.435,1.766-0.898,3.402-1.39,4.907c-0.492,1.505-0.955,2.809-1.389,3.909l-5.819,17.241
		H173.455z"/>
	<path fill="#231F20" d="M253.537,86.358h-13.29c-2.461,0-4.227-0.926-5.298-2.779L224.44,65.208
		c-0.492-0.78-1.042-1.352-1.65-1.714c-0.609-0.362-1.476-0.544-2.606-0.544h-3.735v23.408H201.77V23.084h20.584
		c4.575,0,8.476,0.471,11.705,1.41c3.227,0.941,5.862,2.252,7.903,3.931c2.042,1.68,3.524,3.662,4.452,5.95
		c0.926,2.287,1.389,4.777,1.389,7.469c0,2.056-0.274,3.995-0.825,5.819c-0.55,1.824-1.361,3.511-2.431,5.059
		c-1.072,1.55-2.396,2.931-3.974,4.148c-1.579,1.216-3.396,2.214-5.45,2.996c0.955,0.494,1.852,1.108,2.692,1.846
		c0.84,0.739,1.591,1.614,2.258,2.628L253.537,86.358z M222.355,52.831c1.999,0,3.699-0.253,5.104-0.76
		c1.404-0.506,2.554-1.208,3.452-2.105c0.897-0.898,1.548-1.947,1.955-3.149c0.405-1.202,0.607-2.497,0.607-3.888
		c0-2.779-0.905-4.95-2.714-6.514c-1.811-1.562-4.611-2.344-8.404-2.344h-5.905v18.76H222.355z"/>
	<path fill="#231F20" d="M315.636,86.358h-11.378c-1.274,0-2.301-0.296-3.083-0.891c-0.782-0.593-1.375-1.352-1.78-2.28
		l-3.734-11.03h-24.06l-3.734,11.03c-0.319,0.811-0.891,1.542-1.715,2.194c-0.825,0.652-1.846,0.977-3.062,0.977h-11.466
		l24.494-63.274h15.027L315.636,86.358z M292.315,62.169l-5.862-17.328c-0.434-1.101-0.897-2.396-1.389-3.886
		c-0.494-1.492-0.986-3.106-1.476-4.843c-0.435,1.766-0.898,3.402-1.39,4.907c-0.492,1.505-0.955,2.809-1.389,3.909l-5.819,17.241
		H292.315z"/>
	<path fill="#231F20" d="M384.252,98.213H372.18c-1.737,0-3.295-0.224-4.668-0.673c-1.377-0.449-2.657-1.28-3.843-2.496
		l-7.861-8.817c-2.461,0.55-5.11,0.825-7.947,0.825c-4.921,0-9.408-0.825-13.462-2.474c-4.053-1.651-7.521-3.931-10.402-6.84
		c-2.881-2.91-5.11-6.333-6.687-10.27c-1.579-3.938-2.367-8.194-2.367-12.769c0-4.573,0.788-8.83,2.367-12.767
		c1.578-3.937,3.807-7.354,6.687-10.248c2.881-2.896,6.348-5.168,10.402-6.819c4.053-1.65,8.541-2.474,13.462-2.474
		c4.923,0,9.402,0.832,13.442,2.496c4.038,1.666,7.49,3.946,10.357,6.84c2.865,2.896,5.088,6.312,6.666,10.248
		c1.578,3.938,2.367,8.18,2.367,12.724c0,2.723-0.282,5.335-0.846,7.838c-0.566,2.505-1.377,4.858-2.433,7.058
		c-1.056,2.2-2.359,4.24-3.908,6.123c-1.55,1.883-3.308,3.546-5.277,4.993L384.252,98.213z M329.967,54.699
		c0,3.157,0.406,5.987,1.217,8.49c0.809,2.505,1.975,4.625,3.495,6.362c1.519,1.737,3.387,3.062,5.602,3.974s4.74,1.369,7.578,1.369
		c2.809,0,5.314-0.457,7.513-1.369c2.2-0.912,4.061-2.237,5.58-3.974c1.521-1.737,2.684-3.857,3.495-6.362
		c0.811-2.503,1.217-5.333,1.217-8.49c0-3.126-0.406-5.942-1.217-8.446c-0.811-2.505-1.975-4.625-3.495-6.362
		c-1.519-1.738-3.38-3.069-5.58-3.997c-2.2-0.926-4.705-1.389-7.513-1.389c-2.838,0-5.363,0.463-7.578,1.389
		c-2.215,0.927-4.083,2.258-5.602,3.997c-1.521,1.737-2.686,3.857-3.495,6.362C330.373,48.757,329.967,51.573,329.967,54.699z"/>
	<path fill="#231F20" d="M404.099,86.358h-14.766V23.084h14.766V86.358z"/>
	<path fill="#231F20" d="M458.99,69.986c0.346,0,0.694,0.064,1.042,0.195c0.346,0.13,0.679,0.354,0.998,0.673l5.819,6.123
		c-2.548,3.33-5.74,5.841-9.575,7.535c-3.837,1.694-8.375,2.54-13.615,2.54c-4.806,0-9.112-0.817-12.919-2.453
		c-3.808-1.636-7.035-3.894-9.684-6.775c-2.649-2.881-4.683-6.298-6.102-10.25c-1.42-3.951-2.128-8.243-2.128-12.876
		c0-4.719,0.767-9.054,2.301-13.006c1.534-3.952,3.692-7.36,6.471-10.227s6.108-5.096,9.988-6.687
		c3.88-1.593,8.15-2.388,12.812-2.388c2.373,0,4.61,0.21,6.709,0.629c2.099,0.42,4.061,1,5.885,1.737
		c1.824,0.739,3.503,1.63,5.038,2.672c1.535,1.041,2.894,2.171,4.083,3.387l-4.952,6.644c-0.319,0.406-0.694,0.776-1.128,1.108
		c-0.435,0.333-1.042,0.498-1.824,0.498c-0.521,0-1.013-0.115-1.476-0.346c-0.465-0.231-0.955-0.514-1.476-0.848
		c-0.521-0.333-1.093-0.694-1.715-1.085c-0.624-0.391-1.361-0.753-2.215-1.085s-1.853-0.615-2.997-0.846
		c-1.144-0.231-2.482-0.348-4.017-0.348c-2.431,0-4.654,0.449-6.666,1.346c-2.013,0.898-3.75,2.208-5.211,3.931
		c-1.463,1.723-2.592,3.836-3.388,6.341c-0.797,2.503-1.194,5.363-1.194,8.576c0,3.242,0.442,6.123,1.325,8.642
		c0.883,2.519,2.085,4.641,3.604,6.362c1.521,1.723,3.293,3.034,5.32,3.931c2.027,0.898,4.198,1.346,6.514,1.346
		c1.332,0,2.548-0.064,3.649-0.195c1.099-0.13,2.128-0.348,3.083-0.652c0.955-0.304,1.853-0.71,2.692-1.216
		c0.84-0.507,1.694-1.151,2.563-1.933c0.346-0.29,0.724-0.527,1.128-0.716C458.136,70.08,458.556,69.986,458.99,69.986z"/>
	<path fill="#231F20" d="M528.515,23.084v63.274h-14.766V59.606h-25.708v26.752h-14.766V23.084h14.766v26.447h25.708V23.084H528.515
		z"/>
</g>
<g>
	<path fill="#231F20" d="M146.761,95.857c-0.201,0.258-0.397,0.451-0.587,0.578c-0.19,0.129-0.419,0.193-0.687,0.193
		c-0.258,0-0.515-0.084-0.773-0.251c-0.256-0.167-0.544-0.353-0.863-0.553c-0.319-0.201-0.685-0.386-1.098-0.553
		c-0.414-0.167-0.901-0.251-1.459-0.251c-0.515,0-0.964,0.072-1.351,0.218c-0.385,0.146-0.707,0.346-0.964,0.604
		s-0.449,0.56-0.578,0.906s-0.193,0.727-0.193,1.139c0,0.448,0.126,0.823,0.377,1.124c0.251,0.302,0.587,0.569,1.006,0.797
		c0.42,0.23,0.892,0.438,1.418,0.629c0.526,0.19,1.064,0.397,1.617,0.621s1.096,0.481,1.628,0.771
		c0.53,0.291,1.006,0.655,1.424,1.09c0.42,0.437,0.756,0.963,1.007,1.578c0.251,0.615,0.377,1.352,0.377,2.214
		c0,1.23-0.213,2.387-0.638,3.471s-1.033,2.031-1.827,2.842c-0.794,0.811-1.758,1.453-2.893,1.929
		c-1.134,0.475-2.413,0.713-3.833,0.713c-0.704,0-1.412-0.078-2.122-0.235c-0.71-0.156-1.392-0.377-2.045-0.662
		c-0.655-0.285-1.26-0.624-1.82-1.015c-0.56-0.391-1.035-0.828-1.426-1.308l1.945-2.549c0.156-0.19,0.35-0.346,0.578-0.469
		c0.23-0.124,0.461-0.186,0.696-0.186c0.314,0,0.618,0.109,0.915,0.328c0.296,0.218,0.622,0.458,0.981,0.721
		c0.357,0.262,0.773,0.503,1.249,0.721c0.474,0.219,1.058,0.328,1.752,0.328c1.016,0,1.803-0.277,2.356-0.831
		c0.553-0.553,0.829-1.372,0.829-2.456c0-0.504-0.126-0.917-0.377-1.242c-0.251-0.323-0.581-0.598-0.989-0.822
		c-0.409-0.224-0.875-0.422-1.401-0.595c-0.526-0.173-1.062-0.36-1.61-0.563c-0.547-0.201-1.084-0.438-1.61-0.713
		c-0.526-0.273-0.992-0.632-1.401-1.073c-0.408-0.442-0.737-0.983-0.989-1.627c-0.251-0.642-0.377-1.433-0.377-2.373
		c0-1.084,0.204-2.126,0.612-3.127c0.408-1,0.992-1.887,1.752-2.658c0.76-0.771,1.683-1.386,2.767-1.844
		c1.085-0.458,2.303-0.688,3.656-0.688c0.693,0,1.367,0.074,2.021,0.219c0.655,0.146,1.266,0.346,1.837,0.602
		c0.57,0.258,1.09,0.563,1.559,0.915c0.471,0.351,0.866,0.734,1.191,1.148L146.761,95.857z"/>
	<path fill="#231F20" d="M163.682,112.175c-0.615,0.602-1.216,1.125-1.803,1.567c-0.587,0.443-1.19,0.806-1.811,1.092
		s-1.28,0.494-1.979,0.629c-0.699,0.133-1.463,0.201-2.289,0.201c-1.029,0-1.973-0.176-2.835-0.529
		c-0.862-0.351-1.602-0.849-2.221-1.492c-0.621-0.642-1.102-1.418-1.443-2.323c-0.342-0.906-0.512-1.912-0.512-3.019
		c0-0.929,0.104-1.834,0.311-2.717c0.205-0.883,0.503-1.714,0.888-2.491c0.386-0.777,0.859-1.492,1.418-2.146
		c0.558-0.655,1.188-1.216,1.886-1.685c0.699-0.471,1.466-0.837,2.298-1.099s1.719-0.394,2.658-0.394
		c0.928,0,1.752,0.133,2.473,0.402c0.722,0.268,1.328,0.618,1.82,1.049s0.866,0.914,1.124,1.45s0.386,1.075,0.386,1.611
		c0,0.793-0.156,1.518-0.469,2.171c-0.314,0.655-0.859,1.239-1.636,1.752c-0.777,0.515-1.823,0.95-3.137,1.309
		c-1.314,0.357-2.965,0.636-4.955,0.839c0.021,1.185,0.282,2.051,0.78,2.599c0.497,0.549,1.233,0.822,2.205,0.822
		c0.458,0,0.855-0.038,1.191-0.117c0.336-0.078,0.629-0.179,0.88-0.302c0.251-0.124,0.478-0.251,0.679-0.386
		c0.201-0.133,0.394-0.262,0.578-0.386c0.186-0.123,0.379-0.222,0.579-0.3c0.201-0.078,0.431-0.118,0.687-0.118
		c0.169,0,0.33,0.041,0.488,0.126c0.156,0.084,0.296,0.193,0.419,0.327L163.682,112.175z M157.947,101.273
		c-0.862,0-1.616,0.343-2.264,1.032c-0.648,0.687-1.128,1.63-1.443,2.825c1.075-0.167,1.945-0.346,2.617-0.537
		c0.671-0.19,1.191-0.394,1.559-0.612c0.369-0.218,0.618-0.451,0.747-0.696s0.193-0.514,0.193-0.805s-0.112-0.564-0.336-0.822
		C158.796,101.402,158.439,101.273,157.947,101.273z"/>
	<path fill="#231F20" d="M165.276,115.394l3.052-25.105h5.131l-3.052,25.105H165.276z"/>
	<path fill="#231F20" d="M173.694,115.394l3.052-25.105h5.131l-3.052,25.105H173.694z"/>
	<path fill="#231F20" d="M196.92,101.592l-1.561,12.963l-0.904,2.917c-0.224,0.638-0.537,1.138-0.94,1.502
		c-0.402,0.362-0.984,0.544-1.743,0.544h-2.114l2.163-17.944l-1.023-0.235c-0.325-0.089-0.587-0.228-0.788-0.42
		c-0.201-0.189-0.274-0.469-0.218-0.837l0.268-2.047h2.197l0.117-0.989c0.123-0.995,0.397-1.896,0.822-2.701
		c0.425-0.805,0.967-1.492,1.627-2.062c0.661-0.57,1.423-1.012,2.29-1.325c0.866-0.313,1.803-0.471,2.809-0.471
		c0.391,0,0.751,0.026,1.082,0.077c0.33,0.049,0.662,0.13,0.996,0.242l-0.469,2.617c-0.055,0.29-0.213,0.48-0.469,0.57
		c-0.258,0.089-0.515,0.133-0.771,0.133c-0.862,0-1.547,0.23-2.054,0.688c-0.509,0.458-0.831,1.257-0.964,2.398l-0.101,0.822h3.521
		l-0.469,3.555h-3.304V101.592z"/>
	<path fill="#231F20" d="M209.917,112.494c-0.704,0.983-1.495,1.757-2.373,2.323c-0.877,0.564-1.841,0.846-2.893,0.846
		c-0.625,0-1.23-0.126-1.811-0.377c-0.583-0.251-1.096-0.632-1.544-1.141c-0.446-0.509-0.805-1.157-1.073-1.945
		s-0.402-1.719-0.402-2.792c0-1.578,0.287-3.072,0.863-4.487c0.576-1.413,1.381-2.652,2.415-3.715
		c1.035-1.061,2.261-1.906,3.681-2.531c1.421-0.627,2.98-0.94,4.68-0.94c0.826,0,1.665,0.057,2.514,0.167
		c0.851,0.112,1.688,0.314,2.516,0.604l-2.113,16.888h-2.784c-0.325,0-0.595-0.041-0.814-0.126c-0.218-0.084-0.391-0.198-0.52-0.343
		c-0.129-0.146-0.218-0.319-0.268-0.52c-0.049-0.202-0.075-0.42-0.075-0.655v-1.256H209.917z M210.722,101.307
		c-0.849,0-1.624,0.19-2.323,0.57s-1.3,0.897-1.803,1.551c-0.503,0.655-0.892,1.415-1.165,2.281
		c-0.274,0.866-0.411,1.791-0.411,2.775c0,0.56,0.044,1.035,0.133,1.426c0.09,0.391,0.21,0.707,0.362,0.947
		c0.15,0.241,0.33,0.417,0.537,0.529c0.205,0.112,0.432,0.167,0.679,0.167c0.38,0,0.748-0.143,1.107-0.428
		c0.357-0.285,0.696-0.673,1.013-1.165c0.319-0.492,0.613-1.069,0.882-1.728s0.497-1.364,0.687-2.113l0.621-4.814h-0.319V101.307z"
		/>
	<path fill="#231F20" d="M229.587,101.66c-0.156,0.201-0.302,0.346-0.435,0.435c-0.135,0.09-0.313,0.135-0.537,0.135
		s-0.445-0.051-0.662-0.152c-0.218-0.1-0.454-0.215-0.705-0.343s-0.537-0.244-0.855-0.343c-0.317-0.101-0.684-0.152-1.098-0.152
		c-0.771,0-1.323,0.149-1.653,0.445c-0.33,0.297-0.494,0.679-0.494,1.15c0,0.3,0.092,0.558,0.276,0.771
		c0.184,0.212,0.428,0.402,0.73,0.57c0.302,0.167,0.645,0.32,1.032,0.461c0.385,0.14,0.779,0.296,1.182,0.469
		c0.403,0.173,0.797,0.371,1.182,0.595c0.386,0.224,0.73,0.498,1.032,0.822c0.302,0.325,0.544,0.71,0.73,1.157
		c0.184,0.448,0.276,0.978,0.276,1.593c0,0.872-0.173,1.697-0.52,2.474c-0.346,0.777-0.845,1.453-1.492,2.028
		c-0.648,0.576-1.435,1.035-2.356,1.375c-0.923,0.342-1.961,0.512-3.112,0.512c-0.547,0-1.09-0.057-1.627-0.167
		c-0.537-0.112-1.042-0.264-1.518-0.454c-0.475-0.19-0.908-0.415-1.298-0.679c-0.392-0.262-0.71-0.544-0.957-0.846l1.274-1.912
		c0.156-0.224,0.339-0.4,0.546-0.529s0.461-0.193,0.763-0.193c0.279,0,0.52,0.067,0.721,0.202c0.201,0.133,0.42,0.279,0.655,0.435
		s0.514,0.302,0.839,0.435c0.323,0.135,0.748,0.202,1.274,0.202c0.737,0,1.286-0.166,1.643-0.495
		c0.357-0.33,0.537-0.717,0.537-1.165c0-0.346-0.092-0.632-0.276-0.855c-0.186-0.224-0.428-0.417-0.73-0.579
		c-0.302-0.161-0.644-0.307-1.024-0.435c-0.38-0.129-0.771-0.271-1.173-0.428c-0.403-0.156-0.794-0.337-1.174-0.544
		c-0.38-0.207-0.721-0.468-1.023-0.78c-0.302-0.313-0.546-0.699-0.73-1.157c-0.186-0.458-0.277-1.012-0.277-1.66
		c0-0.805,0.149-1.587,0.445-2.347s0.739-1.435,1.325-2.022c0.587-0.586,1.317-1.058,2.189-1.417
		c0.872-0.357,1.889-0.537,3.052-0.537c1.162,0,2.2,0.201,3.111,0.604c0.911,0.402,1.663,0.894,2.255,1.475L229.587,101.66z"/>
	<path fill="#231F20" d="M232.976,111.638c0-0.078,0-0.173,0-0.285s0.008-0.271,0.025-0.478s0.044-0.481,0.084-0.822
		c0.04-0.342,0.092-0.791,0.159-1.351l0.889-7.11h-1.392c-0.235,0-0.431-0.086-0.587-0.261c-0.156-0.172-0.207-0.426-0.152-0.762
		l0.236-2.03l2.632-0.537l1.459-4.243c0.19-0.537,0.57-0.805,1.141-0.805h2.816l-0.636,5.082h3.891l-0.437,3.555h-3.891
		l-0.839,6.825c-0.055,0.458-0.1,0.82-0.133,1.082c-0.034,0.262-0.058,0.465-0.075,0.604c-0.017,0.14-0.026,0.235-0.026,0.285
		c0,0.049,0,0.081,0,0.092c0,0.323,0.075,0.595,0.227,0.813c0.15,0.219,0.388,0.328,0.713,0.328c0.178,0,0.327-0.02,0.445-0.06
		c0.117-0.038,0.221-0.083,0.31-0.133s0.173-0.095,0.251-0.135c0.078-0.038,0.169-0.058,0.268-0.058
		c0.156,0,0.271,0.037,0.343,0.109c0.074,0.074,0.149,0.187,0.227,0.343l1.141,2.467c-0.693,0.503-1.436,0.88-2.231,1.131
		c-0.794,0.251-1.593,0.377-2.398,0.377c-0.671,0-1.275-0.092-1.812-0.276c-0.537-0.186-0.998-0.454-1.383-0.806
		c-0.386-0.351-0.688-0.773-0.906-1.265S232.997,112.264,232.976,111.638z"/>
	<path fill="#231F20" d="M258.666,112.175c-0.615,0.602-1.216,1.125-1.803,1.567c-0.587,0.443-1.19,0.806-1.811,1.092
		c-0.621,0.285-1.28,0.494-1.979,0.629c-0.699,0.133-1.463,0.201-2.289,0.201c-1.029,0-1.973-0.176-2.835-0.529
		c-0.862-0.351-1.602-0.849-2.221-1.492c-0.621-0.642-1.102-1.418-1.443-2.323c-0.342-0.906-0.512-1.912-0.512-3.019
		c0-0.929,0.104-1.834,0.311-2.717c0.205-0.883,0.503-1.714,0.888-2.491c0.386-0.777,0.859-1.492,1.418-2.146
		c0.558-0.655,1.188-1.216,1.886-1.685c0.699-0.471,1.466-0.837,2.298-1.099s1.719-0.394,2.658-0.394
		c0.927,0,1.752,0.133,2.473,0.402c0.722,0.268,1.328,0.618,1.82,1.049c0.492,0.431,0.866,0.914,1.124,1.45
		c0.258,0.537,0.386,1.075,0.386,1.611c0,0.793-0.156,1.518-0.469,2.171c-0.314,0.655-0.859,1.239-1.636,1.752
		c-0.777,0.515-1.823,0.95-3.137,1.309c-1.314,0.357-2.965,0.636-4.955,0.839c0.021,1.185,0.282,2.051,0.78,2.599
		c0.497,0.549,1.233,0.822,2.205,0.822c0.458,0,0.855-0.038,1.191-0.117s0.629-0.179,0.88-0.302
		c0.251-0.124,0.478-0.251,0.679-0.386c0.201-0.133,0.394-0.262,0.578-0.386c0.186-0.123,0.379-0.222,0.579-0.3
		s0.431-0.118,0.687-0.118c0.169,0,0.33,0.041,0.488,0.126c0.156,0.084,0.296,0.193,0.419,0.327L258.666,112.175z M252.931,101.273
		c-0.862,0-1.616,0.343-2.264,1.032c-0.648,0.687-1.128,1.63-1.443,2.825c1.075-0.167,1.945-0.346,2.617-0.537
		c0.671-0.19,1.191-0.394,1.559-0.612c0.369-0.218,0.618-0.451,0.747-0.696s0.193-0.514,0.193-0.805s-0.112-0.564-0.336-0.822
		C253.781,101.402,253.423,101.273,252.931,101.273z"/>
	<path fill="#231F20" d="M266.767,101.592c0.425-0.748,0.877-1.392,1.358-1.929s0.975-0.954,1.484-1.249
		c0.509-0.296,1.029-0.463,1.561-0.503c0.53-0.04,1.064,0.064,1.6,0.31l-0.938,4.814c-0.638-0.268-1.233-0.391-1.786-0.369
		c-0.553,0.023-1.062,0.213-1.527,0.57c-0.465,0.359-0.883,0.895-1.257,1.61c-0.376,0.716-0.696,1.633-0.964,2.75l-0.94,7.799
		h-5.097l2.113-17.391h2.683c0.537,0,0.957,0.126,1.259,0.377s0.452,0.662,0.452,1.233v1.978H266.767z"/>
	<path fill="#231F20" d="M278.556,112.762c0-0.403,0.075-0.777,0.227-1.124c0.15-0.346,0.357-0.648,0.621-0.906
		c0.262-0.258,0.572-0.461,0.931-0.612c0.357-0.152,0.748-0.227,1.174-0.227c0.412,0,0.799,0.075,1.156,0.227
		c0.359,0.15,0.671,0.354,0.94,0.612s0.478,0.56,0.629,0.906c0.152,0.346,0.227,0.721,0.227,1.124c0,0.402-0.075,0.779-0.227,1.131
		c-0.15,0.353-0.36,0.656-0.629,0.914s-0.581,0.458-0.94,0.604c-0.357,0.146-0.744,0.218-1.156,0.218
		c-0.426,0-0.817-0.072-1.174-0.218c-0.359-0.146-0.668-0.346-0.931-0.604c-0.264-0.258-0.471-0.561-0.621-0.914
		C278.631,113.541,278.556,113.164,278.556,112.762z"/>
	<path fill="#231F20" d="M286.655,112.762c0-0.403,0.075-0.777,0.227-1.124c0.15-0.346,0.357-0.648,0.621-0.906
		c0.262-0.258,0.572-0.461,0.931-0.612c0.357-0.152,0.748-0.227,1.174-0.227c0.412,0,0.799,0.075,1.156,0.227
		c0.359,0.15,0.671,0.354,0.94,0.612c0.268,0.258,0.478,0.56,0.629,0.906c0.152,0.346,0.227,0.721,0.227,1.124
		c0,0.402-0.075,0.779-0.227,1.131c-0.15,0.353-0.36,0.656-0.629,0.914c-0.268,0.258-0.581,0.458-0.94,0.604
		c-0.357,0.146-0.744,0.218-1.156,0.218c-0.426,0-0.817-0.072-1.174-0.218c-0.359-0.146-0.668-0.346-0.931-0.604
		c-0.264-0.258-0.471-0.561-0.621-0.914C286.73,113.541,286.655,113.164,286.655,112.762z"/>
	<path fill="#231F20" d="M294.756,112.762c0-0.403,0.075-0.777,0.227-1.124c0.15-0.346,0.357-0.648,0.621-0.906
		c0.262-0.258,0.572-0.461,0.931-0.612c0.357-0.152,0.748-0.227,1.174-0.227c0.412,0,0.799,0.075,1.156,0.227
		c0.359,0.15,0.671,0.354,0.94,0.612s0.478,0.56,0.629,0.906c0.152,0.346,0.227,0.721,0.227,1.124c0,0.402-0.075,0.779-0.227,1.131
		c-0.15,0.353-0.36,0.656-0.629,0.914s-0.581,0.458-0.94,0.604c-0.357,0.146-0.744,0.218-1.156,0.218
		c-0.426,0-0.817-0.072-1.174-0.218c-0.359-0.146-0.668-0.346-0.931-0.604c-0.264-0.258-0.471-0.561-0.621-0.914
		C294.831,113.541,294.756,113.164,294.756,112.762z"/>
</g>
</svg>
